<svg width="298" height="262" viewBox="0 0 298 262" fill="none" xmlns="http://www.w3.org/2000/svg">
  <g clip-path="url(#clip0_411_11165)">
    <path d="M149 260.886C231.29 260.886 298 206.614 298 139.665C298 72.716 231.29 18.4434 149 18.4434C66.7096 18.4434 0 72.716 0 139.665C0 206.614 66.7096 260.886 149 260.886Z" fill="black"/>
    <path d="M263.403 156.268C264.614 152.481 278.293 153.479 293.965 158.499C294.678 158.724 295.372 158.959 296.065 159.203C297.316 152.873 298 146.376 298 139.752C298 126.415 295.342 113.578 290.457 101.572C288.982 102.551 287.458 103.509 285.855 104.439C270.652 113.226 255.782 115.936 252.636 110.476C249.49 105.026 259.27 93.4802 274.463 84.6839C276.29 83.6272 278.107 82.6683 279.905 81.7877C278.137 79.1458 276.261 76.5529 274.258 74.0382C283.383 66.465 289.207 55.0268 289.207 42.2285C289.207 19.4304 270.75 0.947266 247.985 0.947266C229.949 0.947266 214.628 12.5518 209.04 28.7062C200.578 25.673 191.687 23.2855 182.483 21.5634C182.454 25.2229 182.229 29.2346 181.76 33.4321C179.933 49.8018 175.253 62.7175 171.306 62.2771C167.359 61.8368 165.649 48.2069 167.476 31.8373C167.965 27.4538 168.668 23.3246 169.498 19.6261C165.268 19.1466 160.988 18.7846 156.66 18.6085C158.214 24.0487 159.142 30.9175 159.142 38.4027C159.142 55.9759 154.042 70.232 147.759 70.232C141.477 70.232 136.377 55.9856 136.377 38.4027C136.377 30.9762 137.295 24.1661 138.819 18.7455C134.149 18.9999 129.547 19.4499 125.004 20.0468C125.795 23.6378 126.45 27.6103 126.919 31.8275C128.746 48.1971 127.026 61.8271 123.089 62.2674C119.141 62.7077 114.461 49.792 112.634 33.4224C112.195 29.4987 111.97 25.7414 111.921 22.2679C101.682 24.4107 91.8426 27.3755 82.5802 31.1425C76.9426 15.0371 61.642 3.46191 43.635 3.46191C20.8698 3.46191 2.41331 21.945 2.41331 44.7431C2.41331 58.833 9.46761 71.2594 20.2151 78.7055C17.7432 82.1595 15.5351 85.7504 13.4833 89.4099C15.4081 90.1143 17.3622 90.8971 19.3358 91.7875C35.3594 98.9694 46.2535 109.458 43.6839 115.202C41.1142 120.946 26.0481 119.781 10.0245 112.599C8.13882 111.758 6.33128 110.858 4.6019 109.938C1.64144 119.478 0 129.448 0 139.732C0 147.628 0.957508 155.338 2.72597 162.814C3.9082 162.393 5.10997 161.982 6.34105 161.591C22.0129 156.571 35.6916 155.573 36.9031 159.36C38.1147 163.147 26.3901 170.28 10.7182 175.299C9.44807 175.71 8.19744 176.072 6.95659 176.434C7.89456 178.841 8.94 181.199 10.0538 183.538C10.601 183.283 11.1384 183.019 11.6855 182.765C26.6441 175.916 40.1176 173.303 41.7689 176.914C43.4201 180.524 32.6237 189.007 17.665 195.857C17.4696 195.945 17.2742 196.023 17.0788 196.121C42.0131 234.711 91.7156 261.042 149 261.042C206.284 261.042 258.752 233.243 282.953 192.892C282.846 192.843 282.748 192.804 282.651 192.755C267.692 185.906 256.896 177.432 258.547 173.812C260.198 170.192 273.662 172.814 288.63 179.663C288.933 179.8 289.226 179.947 289.539 180.094C290.545 177.775 291.454 175.417 292.294 173.029C291.405 172.765 290.516 172.491 289.607 172.207C273.935 167.188 262.22 160.055 263.422 156.268H263.403Z" fill="#E17B2D"/>
    <path d="M114.598 131.182C118.602 131.182 121.848 127.932 121.848 123.922C121.848 119.913 118.602 116.662 114.598 116.662C110.594 116.662 107.349 119.913 107.349 123.922C107.349 127.932 110.594 131.182 114.598 131.182Z" fill="black"/>
    <path d="M180.431 131.182C184.435 131.182 187.681 127.932 187.681 123.922C187.681 119.913 184.435 116.662 180.431 116.662C176.427 116.662 173.182 119.913 173.182 123.922C173.182 127.932 176.427 131.182 180.431 131.182Z" fill="black"/>
    <path d="M164.165 201.132C135.85 206.132 94.667 195.183 94.667 161.27C94.667 151.25 102.777 143.129 112.781 143.129H186.119C196.124 143.129 204.233 151.25 204.233 161.27C204.233 180.79 187.829 194.801 170.261 199.752C168.317 200.3 166.285 200.76 164.174 201.132H164.165Z" fill="#EAC68C"/>
    <path d="M165.981 143.13C165.981 143.13 165.971 135.458 151.755 136.114C149.987 136.192 148.208 136.192 146.44 136.114C132.224 135.458 132.214 143.13 132.214 143.13C130.866 153.032 143.274 155.311 148.14 155.83L149.097 155.918C153.963 155.409 167.329 153.032 165.981 143.13Z" fill="black"/>
    <path d="M122.962 171.328C122.962 171.328 138.849 178.304 149.166 167.14V151.504" stroke="black" stroke-width="2.58382" stroke-linecap="round" stroke-linejoin="round"/>
    <path d="M175.302 171.328C175.302 171.328 159.415 178.304 149.098 167.14V151.504" stroke="black" stroke-width="2.58382" stroke-linecap="round" stroke-linejoin="round"/>
    <path d="M108.843 162.815C110.349 162.815 111.569 161.593 111.569 160.085C111.569 158.578 110.349 157.355 108.843 157.355C107.338 157.355 106.117 158.578 106.117 160.085C106.117 161.593 107.338 162.815 108.843 162.815Z" fill="black"/>
    <path d="M115.262 171.866C116.768 171.866 117.988 170.644 117.988 169.136C117.988 167.628 116.768 166.406 115.262 166.406C113.757 166.406 112.536 167.628 112.536 169.136C112.536 170.644 113.757 171.866 115.262 171.866Z" fill="black"/>
    <path d="M120.353 162.815C121.858 162.815 123.079 161.593 123.079 160.085C123.079 158.578 121.858 157.355 120.353 157.355C118.847 157.355 117.627 158.578 117.627 160.085C117.627 161.593 118.847 162.815 120.353 162.815Z" fill="black"/>
    <path d="M178.008 162.815C179.514 162.815 180.734 161.593 180.734 160.085C180.734 158.578 179.514 157.355 178.008 157.355C176.503 157.355 175.282 158.578 175.282 160.085C175.282 161.593 176.503 162.815 178.008 162.815Z" fill="black"/>
    <path d="M184.428 171.866C185.934 171.866 187.154 170.644 187.154 169.136C187.154 167.628 185.934 166.406 184.428 166.406C182.923 166.406 181.702 167.628 181.702 169.136C181.702 170.644 182.923 171.866 184.428 171.866Z" fill="black"/>
    <path d="M189.519 162.815C191.024 162.815 192.245 161.593 192.245 160.085C192.245 158.578 191.024 157.355 189.519 157.355C188.013 157.355 186.793 158.578 186.793 160.085C186.793 161.593 188.013 162.815 189.519 162.815Z" fill="black"/>
    <path d="M63.2535 40.518C63.2535 40.518 48.6173 45.5473 35.2317 62.7095C35.2317 62.7095 18.3874 51.3789 23.5169 36.1149C26.2917 27.8469 34.2449 22.2306 42.9602 22.211C50.288 22.1915 59.0424 25.6748 63.2437 40.5082L63.2535 40.518Z" fill="#381A0D"/>
    <path d="M227.896 37.3364C227.896 37.3364 242.533 42.3657 255.918 59.5278C255.918 59.5278 272.763 48.1973 267.633 32.9333C264.858 24.6653 256.905 19.0489 248.19 19.0294C240.862 19.0098 232.108 22.4931 227.906 37.3266L227.896 37.3364Z" fill="#381A0D"/>
  </g>
  <defs>
    <clipPath id="clip0_411_11165">
      <rect width="298" height="260.104" fill="white" transform="translate(0 0.947266)"/>
    </clipPath>
  </defs>
</svg>